{"title":"Dark.Nature.2009.720p.BRRip.x264.Feel-Free","uid":6152692,"size":1364125654,"categoryP":"video","categoryS":"hd___movies","magnet":"?xt=urn:btih:34b6a4782ccd2769eb2a715a6e47a371e4c4718d&amp;dn=Dark.Nature.2009.720p.BRRip.x264.Feel-Free&amp;tr=udp%3A%2F%2Ftracker.openbittorrent.com%3A80&amp;tr=udp%3A%2F%2Fopen.demonii.com%3A1337&amp;tr=udp%3A%2F%2Ftracker.coppersurfer.tk%3A6969&amp;tr=udp%3A%2F%2Fexodus.desync.com%3A6969","seeders":0,"leechers":1,"uploader":"hiest","files":10,"time":1296927211,"description":"Genre:Thriller\nLanguage:English\nIMDb:http://www.imdb.com/title/tt1285216/\nSource:1080p.BluRay.x264-aAF\n\n\nFormat : MPEG-4\nFormat profile : Base Media\nCodec ID : isom\nFile size : 1.26 GiB\nDuration : 1h 19mn\nOverall bit rate : 2 274 Kbps\nMovie name : Dark.Nature.2009.720p.BRRip.x264.Feel-Free\n\n\nVideo\nFormat settings, CABAC : Yes\nFormat settings, ReFrames : 4 frames\nCodec ID : avc1\nCodec ID/Info : Advanced Video Coding\nDuration : 1h 19mn\nBit rate mode : Variable\nBit rate : 2 200 Kbps\nWidth : 1 280 pixels\nHeight : 544 pixels\nDisplay aspect ratio : 2.35:1\nFrame rate mode : Constant\nFrame rate : 23.976 fps\nColor space : YUV\nChroma subsampling : 4:2:0\nBit depth : 8 bits\nScan type : Progressive\nBits/(Pixel*Frame) : 0.132\nStream size : 1.17 GiB (92%)\nWriting library : x264\n\nAudio\nID : 2\nFormat : AAC\nFormat/Info : Advanced Audio Codec\nFormat version : Version 4\nFormat profile : LC\nCodec ID : 40\nDuration : 1h 19mn\nBit rate mode : Variable\nBit rate : 165 Kbps\nChannel(s) : 2 channels\nChannel positions : Front: L R\nSampling rate : 48.0 KHz\nStream size : 94.0 MiB (7%)\n\n\nPlot:\nA family holiday turns into a fight for survival in the inhospitable wilderness of remote Scotland.","torrent":{"xt":"urn:btih:34b6a4782ccd2769eb2a715a6e47a371e4c4718d","amp;dn":"Dark.Nature.2009.720p.BRRip.x264.Feel-Free","amp;tr":["udp%3A%2F%2Ftracker.openbittorrent.com%3A80","udp%3A%2F%2Fopen.demonii.com%3A1337","udp%3A%2F%2Ftracker.coppersurfer.tk%3A6969","udp%3A%2F%2Fexodus.desync.com%3A6969"],"infoHash":"34b6a4782ccd2769eb2a715a6e47a371e4c4718d","infoHashBuffer":{"type":"Buffer","data":[52,182,164,120,44,205,39,105,235,42,113,90,110,71,163,113,228,196,113,141]},"announce":[],"urlList":[]}}